<?xml version="1.0" encoding="UTF-8"?>
<svg version="1.1" xmlns="http://www.w3.org/2000/svg" width="281" height="293">
<path d="M0 0 C92.73 0 185.46 0 281 0 C281 96.69 281 193.38 281 293 C188.27 293 95.54 293 0 293 C0 196.31 0 99.62 0 0 Z " fill="#20222F" transform="translate(0,0)"/>
<path d="M0 0 C2.8215377 2.6555649 5.28816651 5.29932472 7.5625 8.4375 C18.31725185 22.99609539 30.93895138 35.61566054 45.3046875 46.609375 C45.86414063 47.06828125 46.42359375 47.5271875 47 48 C47 48.33 47 48.66 47 49 C46.33613281 49.15855469 45.67226562 49.31710938 44.98828125 49.48046875 C39.40090202 50.95684195 35.61907177 52.21348572 32 57 C31.36795838 59.09413015 31.36795838 59.09413015 31 61 C31.96421875 60.65066406 32.9284375 60.30132812 33.921875 59.94140625 C35.19788003 59.48166914 36.47392374 59.02203937 37.75 58.5625 C38.38421875 58.33240234 39.0184375 58.10230469 39.671875 57.86523438 C55.58104574 52.14787614 73.52393142 53.53397135 89 60 C89.66 60.33 90.32 60.66 91 61 C89.81123105 56.54211645 88.91571924 54.44732452 85 52 C82.42967443 51.01310803 82.42967443 51.01310803 79.75 50.3125 C78.41195312 49.93544922 78.41195312 49.93544922 77.046875 49.55078125 C76.37140625 49.36902344 75.6959375 49.18726563 75 49 C77.58668408 45.57662085 80.14980991 42.90434536 83.5625 40.3125 C92.12716211 33.6047779 100.13308441 26.45369289 107 18 C107.47147461 17.41959961 107.94294922 16.83919922 108.42871094 16.24121094 C111.10757997 12.93568668 113.77449863 9.6206645 116.42578125 6.29296875 C116.87348877 5.7311792 117.32119629 5.16938965 117.7824707 4.59057617 C118.91827804 3.10676129 119.96347252 1.55479121 121 0 C121.66 0 122.32 0 123 0 C123.30472972 8.33476957 122.29535983 16.31291234 121.02856445 24.52392578 C120.68631996 26.75770192 120.36310334 28.99370776 120.04101562 31.23046875 C119.8240568 32.6694432 119.6059963 34.10825207 119.38671875 35.546875 C119.09607544 37.47805176 119.09607544 37.47805176 118.79956055 39.44824219 C117.98712606 43.05718781 116.8886783 45.82709164 115 49 C112.73828125 50.2421875 112.73828125 50.2421875 110.3125 50.875 C109.50425781 51.09929687 108.69601563 51.32359375 107.86328125 51.5546875 C107.24839844 51.70164063 106.63351563 51.84859375 106 52 C106.97839844 52.23783203 106.97839844 52.23783203 107.9765625 52.48046875 C108.85054688 52.71378906 109.72453125 52.94710937 110.625 53.1875 C111.48351562 53.40792969 112.34203125 53.62835938 113.2265625 53.85546875 C120.32359907 56.78424581 123.45506208 61.74209223 126.8125 68.3125 C127.20630859 69.03373047 127.60011719 69.75496094 128.00585938 70.49804688 C133.39949421 80.81348914 134.09773734 95.70600523 131.05859375 106.8984375 C125.05055296 118.8258395 108.29947928 128.72534559 97 135 C99.64 135.33 102.28 135.66 105 136 C102.4850104 138.01741972 99.96565506 140.02674743 97.421875 142.0078125 C90.92494654 147.15596342 85.34997519 152.67249848 80 159 C79.01 158.67 78.02 158.34 77 158 C77 157.34 77 156.68 77 156 C66.88170467 153.0688408 55.84687829 151.02527503 46 156 C45.34 156.99 44.68 157.98 44 159 C40.34594397 157.50738336 38.49401122 155.4558204 36 152.4375 C31.60858938 147.40308749 26.9021284 143.67329745 21.50390625 139.8125 C19 138 19 138 17 136 C19.64 135.67 22.28 135.34 25 135 C23.71029297 134.21689453 23.71029297 134.21689453 22.39453125 133.41796875 C13.58032666 127.96736012 5.7022408 121.92466123 -2 115 C-3.15435547 113.98873047 -3.15435547 113.98873047 -4.33203125 112.95703125 C-9.22684899 108.44103851 -9.83706277 105.3080046 -10.16796875 98.58984375 C-10.25075524 83.10877026 -8.91465951 69.60305021 2.0234375 57.8203125 C6.47198629 54.14542437 10.28786793 53.20400472 16 53 C16 52.34 16 51.68 16 51 C15.39671875 50.9484375 14.7934375 50.896875 14.171875 50.84375 C13.37265625 50.7303125 12.5734375 50.616875 11.75 50.5 C10.56664062 50.36078125 10.56664062 50.36078125 9.359375 50.21875 C5.54032997 48.24599826 4.47618293 44.90514458 3 41 C2.06385648 38.00846884 1.36762759 35.00945972 0.75 31.9375 C0.58089111 31.11475586 0.41178223 30.29201172 0.23754883 29.44433594 C-1.66216899 19.52092351 -1.55970613 9.99226365 0 0 Z " fill="#12CB06" transform="translate(79,50)"/>
<path d="M0 0 C0.53206055 0.40935791 1.06412109 0.81871582 1.61230469 1.24047852 C7.43942743 5.70728613 13.38831036 9.78192097 20 13 C18.30879961 21.65976104 12.19005366 29.23470219 6.4375 35.6875 C6.01041748 36.18499756 5.58333496 36.68249512 5.14331055 37.19506836 C-4.6324986 47.71905231 -18.87441922 53.60776514 -31.69458008 59.48217773 C-39.68687537 63.16216059 -46.86095691 66.95129919 -53.83911133 72.41381836 C-56 74 -56 74 -59 75 C-59.68502385 76.32399568 -60.34859211 77.6591458 -61 79 C-62.32774288 80.4610504 -63.70631676 81.87708074 -65.125 83.25 C-65.84945312 83.95640625 -66.57390625 84.6628125 -67.3203125 85.390625 C-68.15175781 86.18726563 -68.15175781 86.18726563 -69 87 C-69 82.68813858 -66.46431389 80.59470863 -63.75 77.5 C-63.20786865 76.87706055 -62.6657373 76.25412109 -62.10717773 75.61230469 C-51.15944551 63.2389464 -38.37564096 52.08344938 -23.6484375 44.50390625 C-18.05851497 41.3296877 -12.58322188 37.37483283 -9 32 C-11.64 32.33 -14.28 32.66 -17 33 C-12.88953193 28.75251633 -8.51621775 24.82809989 -4.109375 20.890625 C-1.60087587 18.9482634 -1.60087587 18.9482634 -0.79467773 16.23413086 C-0.75802002 15.48526611 -0.7213623 14.73640137 -0.68359375 13.96484375 C-0.64169922 13.15595703 -0.59980469 12.34707031 -0.55664062 11.51367188 C-0.51732422 10.66353516 -0.47800781 9.81339844 -0.4375 8.9375 C-0.37272461 7.65649414 -0.37272461 7.65649414 -0.30664062 6.34960938 C-0.20023298 4.23327963 -0.09958269 2.11666187 0 0 Z " fill="#F5F7F8" transform="translate(219,142)"/>
<path d="M0 0 C-0.03222656 1.19496094 -0.06445312 2.38992187 -0.09765625 3.62109375 C-0.2730527 12.7186149 -0.2730527 12.7186149 2.859375 21.0234375 C5.12692837 23.25294467 7.41856699 25.14699116 10 27 C11.1934305 27.99291485 12.38198624 28.99176217 13.5625 30 C14.366875 30.66 15.17125 31.32 16 32 C16 32.33 16 32.66 16 33 C13.69 32.67 11.38 32.34 9 32 C13.74960886 38.51374929 19.37904584 41.88168086 26.2578125 45.94970703 C35.13251978 51.29990192 42.87774763 57.40300528 50.35546875 64.51171875 C52.41420279 66.44881414 54.4817106 68.24043926 56.6875 70 C61.47236627 74.0031802 65.16606859 79.11412822 69 84 C68.67 84.66 68.34 85.32 68 86 C67.14019531 85.0821875 66.28039062 84.164375 65.39453125 83.21875 C64.20123778 81.97847648 63.0071853 80.73893291 61.8125 79.5 C61.25369141 78.89929688 60.69488281 78.29859375 60.11914062 77.6796875 C50.00527732 67.28948913 36.42570457 61.5815055 23.43579102 55.64819336 C7.90425144 48.52347709 -4.66465171 39.65734685 -14.375 25.375 C-14.81666504 24.72901855 -15.25833008 24.08303711 -15.71337891 23.41748047 C-17.98108162 19.9746551 -19.56582701 17.19700559 -20 13 C-19.21496094 12.56429687 -18.42992187 12.12859375 -17.62109375 11.6796875 C-14.01612931 9.63613711 -3.52888076 0 0 0 Z " fill="#F4F5F6" transform="translate(61,142)"/>
<path d="M0 0 C-0.28793356 8.63800668 -3.01263701 16.34655578 -8.70703125 22.9921875 C-13.93360967 27.73504196 -19.86999219 29.73516559 -26.625 31.4375 C-31.79142582 32.82981996 -35.30107035 34.08071243 -38.109375 38.90625 C-40.77871051 44.39966511 -42.04701731 49.99370123 -43 56 C-45 55 -45 55 -46 52 C-47.46742762 39.72783898 -46.51124064 30.10182268 -39 20 C-38.44441406 19.24460938 -37.88882813 18.48921875 -37.31640625 17.7109375 C-29.50817246 8.70277468 -11.84363105 0 0 0 Z " fill="#1A2429" transform="translate(199,138)"/>
<path d="M0 0 C5.98453102 0.554272 10.92879349 2.33787697 16.4375 4.6875 C17.24509766 5.01427734 18.05269531 5.34105469 18.88476562 5.67773438 C30.63676877 10.63043191 40.06060447 18.84464963 45.125 30.72265625 C47.21647045 38.5563335 47.597165 48.63231265 44 56 C42.48362842 53.40050586 41.81827611 51.22118335 41.125 48.25 C39.73958763 42.53783822 37.8707754 37.73046724 33.5 33.6875 C30.276161 32.13314905 27.58853965 31.35640959 24.125 30.5625 C15.76634829 28.6176652 10.24015843 25.35701861 5.3203125 18.24609375 C1.95596346 12.52271891 -0.71191987 6.76323881 0 0 Z " fill="#192528" transform="translate(81,138)"/>
<path d="M0 0 C0.33 0 0.66 0 1 0 C1.03963867 0.81452637 1.07927734 1.62905273 1.12011719 2.46826172 C2.00900301 22.81100552 2.00900301 22.81100552 5.76660156 42.76904297 C7.38548514 48.78954787 7.38548514 48.78954787 6 52 C4.68334336 53.67987227 3.34736973 55.34466005 2 57 C0.58847607 59.2967169 -0.7019249 61.63564892 -2 64 C-7.35628178 55.96557733 -6.38608972 44.06967919 -6.375 34.75 C-6.37483887 33.480354 -6.37467773 32.21070801 -6.37451172 30.90258789 C-6.2432904 20.0947859 -5.24888747 9.67024764 0 0 Z " fill="#138406" transform="translate(70,51)"/>
<path d="M0 0 C2.46632021 2.95545075 3.64952192 5.47317961 4.625 9.1875 C4.86476562 10.06792969 5.10453125 10.94835938 5.3515625 11.85546875 C8.85071214 28.82423657 8.13954442 47.24470117 4 64 C1.11650156 60.44690255 -1.46212891 56.80680664 -4 53 C-4.66 52.34 -5.32 51.68 -6 51 C-5.86328125 49.13671875 -5.86328125 49.13671875 -5.3125 46.6875 C-2.19765367 31.2143997 -0.5225006 15.76510423 0 0 Z " fill="#138906" transform="translate(209,51)"/>
<path d="M0 0 C2.23446289 2.85404846 4.04460878 5.77672478 5.8125 8.9375 C8.41023434 13.33615739 10.8909423 16.0115944 15 19 C15.66 19.66 16.32 20.32 17 21 C11.25 20.125 11.25 20.125 9 19 C9.495 19.45375 9.99 19.9075 10.5 20.375 C12 22 12 22 12 24 C12.57113525 24.26683594 13.14227051 24.53367188 13.73071289 24.80859375 C16.10251887 26.05382379 18.14661216 27.48182684 20.30859375 29.0625 C24.50788798 32.03703216 28.79923922 34.75373691 33.22265625 37.375 C34.17656754 37.94045532 34.17656754 37.94045532 35.14974976 38.51733398 C37.78103466 40.07224207 40.41578269 41.62115517 43.05297852 43.16601562 C50.7550704 47.68604489 58.14253954 52.2292029 65 58 C61.07557888 58 59.18110228 56.60691708 55.75 54.6875 C50.04473063 51.53449354 44.25032609 48.6889285 38.33105469 45.95922852 C28.67547192 41.49145198 20.02359193 37.09252665 12 30 C11.36835937 29.47664063 10.73671875 28.95328125 10.0859375 28.4140625 C5.87751602 24.62840482 2.79006315 20.03029437 -0.375 15.375 C-0.81666504 14.72901855 -1.25833008 14.08303711 -1.71337891 13.41748047 C-3.98108162 9.9746551 -5.56582701 7.19700559 -6 3 C-4.02 2.01 -2.04 1.02 0 0 Z " fill="#999B9E" transform="translate(47,152)"/>
<path d="M0 0 C2.31 0.99 4.62 1.98 7 3 C5.30879961 11.65976104 -0.80994634 19.23470219 -6.5625 25.6875 C-6.98958252 26.18499756 -7.41666504 26.68249512 -7.85668945 27.19506836 C-17.21164763 37.26599223 -30.83124235 43.17307441 -43.0625 48.9375 C-44.45026135 49.60139567 -45.83763279 50.26610702 -47.22460938 50.93164062 C-57.85052662 56.00983904 -57.85052662 56.00983904 -63 58 C-59.08301371 53.71507762 -54.91936 50.87944918 -49.9375 47.9375 C-49.15890625 47.46779785 -48.3803125 46.9980957 -47.578125 46.51416016 C-43.31537452 43.94820801 -39.02613696 41.43051823 -34.72265625 38.93359375 C-25.67101454 33.64961485 -17.31218849 28.62007011 -10 21 C-10.99 21 -11.98 21 -13 21 C-13.99 20.67 -14.98 20.34 -16 20 C-15.0925 19.443125 -14.185 18.88625 -13.25 18.3125 C-6.6829406 13.63978466 -3.6744684 6.99373818 0 0 Z " fill="#999A9D" transform="translate(232,152)"/>
<path d="M0 0 C2.8215377 2.6555649 5.28816651 5.29932472 7.5625 8.4375 C18.31725185 22.99609539 30.93895138 35.61566054 45.3046875 46.609375 C45.86414063 47.06828125 46.42359375 47.5271875 47 48 C47 48.33 47 48.66 47 49 C43.98322169 50.19713425 41.2612944 50.98434579 38 51 C35.02569588 49.2178505 33.12960593 46.70047931 31 44 C29.85855841 42.70445073 28.71268569 41.41279256 27.5625 40.125 C26.69431641 39.11566406 26.69431641 39.11566406 25.80859375 38.0859375 C24.58935567 36.67973202 23.35179243 35.28923441 22.09765625 33.9140625 C13.06637639 24.00648024 3.70641341 13.14092028 0 0 Z " fill="#21ED16" transform="translate(79,50)"/>
<path d="M0 0 C0.495 0.99 0.495 0.99 1 2 C-0.03905304 4.40318994 -1.1315614 6.64176901 -2.375 8.9375 C-2.91495605 9.94043091 -2.91495605 9.94043091 -3.46582031 10.96362305 C-11.83590784 26.02870105 -11.83590784 26.02870105 -18.203125 29.04296875 C-18.79609375 29.35878906 -19.3890625 29.67460938 -20 30 C-20.14735596 30.61447998 -20.29471191 31.22895996 -20.4465332 31.86206055 C-21.08196457 34.3166139 -21.92106488 35.33927097 -23.65234375 37.1640625 C-24.18150391 37.72867188 -24.71066406 38.29328125 -25.25585938 38.875 C-25.81080078 39.4525 -26.36574219 40.03 -26.9375 40.625 C-27.76411133 41.50285156 -27.76411133 41.50285156 -28.60742188 42.3984375 C-34.83040277 48.99192394 -34.83040277 48.99192394 -37.625 49.125 C-38.40875 49.08375 -39.1925 49.0425 -40 49 C-39.45476914 44.09292225 -35.81321193 41.67373409 -32.375 38.5 C-30.86521964 36.97538383 -30.86521964 36.97538383 -29.75 34.6875 C-28.16021226 32.24604025 -26.95313899 30.99722131 -24.75 29.1875 C-16.90374315 22.69517105 -10.89313624 14.22297058 -4.57421875 6.29296875 C-4.12651123 5.7311792 -3.67880371 5.16938965 -3.2175293 4.59057617 C-2.08172196 3.10676129 -1.03652748 1.55479121 0 0 Z " fill="#19F20E" transform="translate(200,50)"/>
<path d="M0 0 C8.70258668 2.9625827 14.71923863 9.51663342 21 16 C17.9821639 17.19755401 15.26293826 17.99479595 12 18 C9.03403775 16.18064249 7.12988163 13.71652396 5 11 C4.49082031 10.46117188 3.98164062 9.92234375 3.45703125 9.3671875 C1.19735097 6.94926631 0.04967434 5.45700389 -0.3125 2.125 C-0.209375 1.42375 -0.10625 0.7225 0 0 Z " fill="#1EEF14" transform="translate(105,83)"/>
<path d="M0 0 C0.33 0 0.66 0 1 0 C1.07516846 0.54825439 1.15033691 1.09650879 1.2277832 1.66137695 C3.18355676 16.52960231 3.18355676 16.52960231 7 31 C7.26554687 31.88558594 7.53109375 32.77117187 7.8046875 33.68359375 C8.79063518 36.16031166 8.79063518 36.16031166 11.12890625 37.0390625 C11.93199219 37.23242188 12.73507813 37.42578125 13.5625 37.625 C16.00390625 38.2265625 16.00390625 38.2265625 18 39 C18.33 39.99 18.66 40.98 19 42 C18.443125 42.13535156 17.88625 42.27070312 17.3125 42.41015625 C10.3160272 44.38382341 4.64899715 47.69849365 0.75390625 54.0234375 C0.09749714 55.35668869 -0.53032646 56.70449765 -1.125 58.06640625 C-2.43032985 60.95095212 -4.18750741 63.41072487 -6 66 C-7 63 -7 63 -5.62890625 59.85546875 C1.80562966 46.22363133 1.80562966 46.22363133 9 43 C11.76807786 42.31272039 14.12555042 42.10265891 17 42 C17 41.34 17 40.68 17 40 C16.39671875 39.9484375 15.7934375 39.896875 15.171875 39.84375 C14.37265625 39.7303125 13.5734375 39.616875 12.75 39.5 C11.56664062 39.36078125 11.56664062 39.36078125 10.359375 39.21875 C6.53736022 37.24446422 5.46779052 33.91272908 4 30 C3.06519647 26.9249884 2.37214138 23.83940621 1.75 20.6875 C1.49524902 19.44552856 1.49524902 19.44552856 1.23535156 18.1784668 C0.05169924 12.08456262 -0.50248739 6.21130243 0 0 Z " fill="#1F8717" transform="translate(78,61)"/>
<path d="M0 0 C0.33 0.66 0.66 1.32 1 2 C-0.03902972 4.403136 -1.13190863 6.64164974 -2.375 8.9375 C-2.73352051 9.60539551 -3.09204102 10.27329102 -3.46142578 10.96142578 C-11.72138173 25.86069086 -11.72138173 25.86069086 -18 29 C-18 28.34 -18 27.68 -18 27 C-19.32 27.33 -20.64 27.66 -22 28 C-19.37654885 23.87829348 -16.62896442 20.36902147 -13.25 16.8125 C-8.34937903 11.51924768 -4.10298535 5.92526097 0 0 Z " fill="#24EA19" transform="translate(200,50)"/>
<path d="M0 0 C0.99 0.495 0.99 0.495 2 1 C2.639375 0.835 3.27875 0.67 3.9375 0.5 C6 0 6 0 9 1 C9.34281133 5.21061738 8.55346987 7.26556519 6.125 10.6875 C5.59132813 11.45449219 5.05765625 12.22148438 4.5078125 13.01171875 C3 15 3 15 1 17 C-0.18681726 13.43954823 -0.09689832 10.56191663 -0.0625 6.8125 C-0.05347656 5.54019531 -0.04445313 4.26789063 -0.03515625 2.95703125 C-0.02355469 1.98121094 -0.01195313 1.00539063 0 0 Z " fill="#189D0D" transform="translate(66,98)"/>
<path d="M0 0 C0.66 0 1.32 0 2 0 C2.05863894 4.14577275 2.09380984 8.29143705 2.125 12.4375 C2.14175781 13.60216797 2.15851563 14.76683594 2.17578125 15.96679688 C2.23162481 25.87902923 0.66187002 33.84532494 -3 43 C-3.33 43 -3.66 43 -4 43 C-3.11143238 34.6287577 -2.02273232 26.28492788 -0.9375 17.9375 C-0.74927463 16.48503567 -0.561123 15.03256179 -0.37304688 13.58007812 C0.08378548 10.05327484 0.54161502 6.52660187 1 3 C0.01 3.33 -0.98 3.66 -2 4 C-2 3.34 -2 2.68 -2 2 C-1.34 2 -0.68 2 0 2 C0 1.34 0 0.68 0 0 Z " fill="#195917" transform="translate(201,47)"/>
<path d="M0 0 C0.33 0 0.66 0 1 0 C1 2.97 1 5.94 1 9 C0.34 8.67 -0.32 8.34 -1 8 C-5.0558969 23.11304441 -4.29524337 38.49593768 -4 54 C-4.33 54 -4.66 54 -5 54 C-8.77289893 37.60393446 -8.19086065 15.0903694 0 0 Z " fill="#1D7118" transform="translate(70,51)"/>
<path d="M0 0 C6.28660334 5.91680315 11.02823212 12.98103358 16 20 C15.01 20 14.02 20 13 20 C12.67 20.66 12.34 21.32 12 22 C6.7813227 14.92141674 2.19934847 8.65077063 0 0 Z " fill="#29E720" transform="translate(79,50)"/>
<path d="M0 0 C-2.64 1.65 -5.28 3.3 -8 5 C-5.36 5.33 -2.72 5.66 0 6 C-3.88672813 9.18005028 -7.89952133 12.10554447 -12 15 C-11.38722388 12.03824877 -10.74627478 10.61941217 -9 8 C-9.66 7.67 -10.32 7.34 -11 7 C-10.67 5.68 -10.34 4.36 -10 3 C-9.01 3 -8.02 3 -7 3 C-7 2.34 -7 1.68 -7 1 C-3.375 -1.125 -3.375 -1.125 0 0 Z " fill="#34D82B" transform="translate(184,180)"/>
<path d="M0 0 C0.33 0 0.66 0 1 0 C1.33472527 13.70485409 1.30215383 26.63413924 -2 40 C-6.46428571 34.61607143 -6.46428571 34.61607143 -7 31 C-5.515 31.99 -5.515 31.99 -4 33 C-4 33.66 -4 34.32 -4 35 C-3.34 35 -2.68 35 -2 35 C-0.96698458 23.35110273 -0.48917044 11.68189333 0 0 Z " fill="#237C1E" transform="translate(215,75)"/>
<path d="M0 0 C0.54527344 0.39832031 1.09054688 0.79664063 1.65234375 1.20703125 C6.95056337 4.92937016 11.79388414 7.2481876 18 9 C27.67164179 11.80337443 27.67164179 11.80337443 31 16 C30.67 16.66 30.34 17.32 30 18 C29.2575 17.236875 28.515 16.47375 27.75 15.6875 C23.94437843 12.48323845 19.88163649 11.86213378 15.1171875 10.8046875 C10.45255021 9.60053301 5.87080022 7.9146663 2 5 C0.7265625 2.3359375 0.7265625 2.3359375 0 0 Z " fill="#2FE024" transform="translate(88,159)"/>
<path d="M0 0 C3 0 3 0 5 1 C3.8803014 2.00593243 2.7540588 3.0045849 1.625 4 C0.68527344 4.8353125 0.68527344 4.8353125 -0.2734375 5.6875 C-2 7 -2 7 -4 7 C-4.24492187 7.57234375 -4.48984375 8.1446875 -4.7421875 8.734375 C-6.21110099 11.38024402 -7.95348244 13.14853139 -10.125 15.25 C-10.84945312 15.95640625 -11.57390625 16.6628125 -12.3203125 17.390625 C-12.87460938 17.92171875 -13.42890625 18.4528125 -14 19 C-14 15.56223405 -13.61645115 15.1876286 -11.4453125 12.71484375 C-10.91292969 12.10189453 -10.38054687 11.48894531 -9.83203125 10.85742188 C-9.26871094 10.22384766 -8.70539063 9.59027344 -8.125 8.9375 C-7.56941406 8.30005859 -7.01382813 7.66261719 -6.44140625 7.00585938 C-4.3448921 4.60876067 -2.25239114 2.25239114 0 0 Z " fill="#ADAEB5" transform="translate(164,210)"/>
<path d="M0 0 C0 0.99 0 1.98 0 3 C-1.47571387 4.21336474 -2.95506341 5.42304562 -4.46484375 6.59375 C-6.75299518 8.68976657 -7.81674203 11.17332817 -9 14 C-7.35 14 -5.7 14 -4 14 C-4 14.66 -4 15.32 -4 16 C-3.34 16 -2.68 16 -2 16 C-2.33 16.66 -2.66 17.32 -3 18 C-4.051875 17.525625 -5.10375 17.05125 -6.1875 16.5625 C-9.10175851 15.30676259 -11.84746914 14.47765619 -15 14 C-12.25724874 10.34299832 -9.42374516 7.54511442 -5.8125 4.75 C-2.80494042 2.49183409 -2.80494042 2.49183409 0 0 Z " fill="#2CD524" transform="translate(169,85)"/>
<path d="M0 0 C0.66 0.33 1.32 0.66 2 1 C-3.15220792 7.29714302 -7.97033347 11.83679943 -15 16 C-11.96900954 9.20998706 -5.68240917 4.57364641 0 0 Z " fill="#EBECEE" transform="translate(180,196)"/>
<path d="M0 0 C0 0.33 0 0.66 0 1 C-8.58 1.33 -17.16 1.66 -26 2 C-26 1.34 -26 0.68 -26 0 C-21.11504169 -0.67048447 -16.22104258 -1.2189573 -11.3125 -1.6875 C-10.23613281 -1.79449219 -9.15976563 -1.90148437 -8.05078125 -2.01171875 C-4.852488 -1.99943337 -2.85585611 -1.38289136 0 0 Z " fill="#143A1B" transform="translate(151,104)"/>
<path d="M0 0 C6.70518586 -0.19818283 12.65176798 -0.30844801 19 2 C19 2.66 19 3.32 19 4 C20.98 4 22.96 4 25 4 C24.34 5.32 23.68 6.64 23 8 C22.01 7.67 21.02 7.34 20 7 C20 6.34 20 5.68 20 5 C10.0740529 2.60094453 10.0740529 2.60094453 0 1 C0 0.67 0 0.34 0 0 Z " fill="#32D928" transform="translate(136,201)"/>
<path d="M0 0 C3.81105248 0.2128696 4.94379348 0.94280884 7.67578125 3.72265625 C8.56747859 4.82571889 9.44613363 5.93943248 10.3125 7.0625 C10.76689453 7.63033203 11.22128906 8.19816406 11.68945312 8.78320312 C12.80436644 10.17977875 13.90375774 11.58872112 15 13 C14.67 13.66 14.34 14.32 14 15 C11.66265901 12.69152056 9.33081534 10.37756659 7 8.0625 C6.33226563 7.40314453 5.66453125 6.74378906 4.9765625 6.06445312 C4.34492187 5.43603516 3.71328125 4.80761719 3.0625 4.16015625 C2.47597656 3.57886963 1.88945313 2.99758301 1.28515625 2.39868164 C0 1 0 1 0 0 Z " fill="#A2A5AE" transform="translate(115,213)"/>
<path d="M0 0 C0.66 0.33 1.32 0.66 2 1 C0.10600285 2.75202288 -1.79011738 4.50164978 -3.6875 6.25 C-4.21794922 6.74113281 -4.74839844 7.23226562 -5.29492188 7.73828125 C-8.43433028 10.62730739 -11.63177061 13.37540567 -15 16 C-12.7231795 9.29797453 -7.77784158 4.9927994 -2.125 0.9375 C-1.073125 0.4734375 -1.073125 0.4734375 0 0 Z " fill="#122F1B" transform="translate(173,147)"/>
<path d="M0 0 C0.33 0.99 0.66 1.98 1 3 C-5.45374932 8.03588015 -11.82341089 10.94686479 -20 12 C-22.35546875 11.56640625 -22.35546875 11.56640625 -24 11 C-22.91460937 10.68546875 -21.82921875 10.3709375 -20.7109375 10.046875 C-19.26546723 9.61511115 -17.82016343 9.18278975 -16.375 8.75 C-15.66214844 8.54503906 -14.94929687 8.34007812 -14.21484375 8.12890625 C-8.65713329 6.44629666 -4.16799689 4.16799689 0 0 Z " fill="#30DD26" transform="translate(191,159)"/>
<path d="M0 0 C0.33 0.66 0.66 1.32 1 2 C-0.07674702 4.28258633 -1.19546116 6.4356434 -2.4375 8.625 C-2.77587891 9.23601563 -3.11425781 9.84703125 -3.46289062 10.4765625 C-4.30146192 11.988353 -5.14982577 13.49470399 -6 15 C-6.99 15 -7.98 15 -9 15 C-9.99 15.495 -9.99 15.495 -11 16 C-9.32076975 12.19866558 -6.88537166 9.02917298 -4.375 5.75 C-3.95476562 5.19570313 -3.53453125 4.64140625 -3.1015625 4.0703125 C-2.07061281 2.71133337 -1.03570089 1.35536165 0 0 Z " fill="#33DC2B" transform="translate(200,50)"/>
<path d="M0 0 C3 4 3 4 3 7 C2.34 7 1.68 7 1 7 C1.25801392 7.86286621 1.25801392 7.86286621 1.52124023 8.74316406 C2.01755777 11.08276595 1.96411335 12.74923749 1.66015625 15.109375 C1.56669922 15.86347656 1.47324219 16.61757812 1.37695312 17.39453125 C1.22129883 18.56048828 1.22129883 18.56048828 1.0625 19.75 C0.96259766 20.54277344 0.86269531 21.33554688 0.75976562 22.15234375 C0.51307129 24.10240371 0.2574122 26.05132586 0 28 C-0.33 28 -0.66 28 -1 28 C-0.67 18.76 -0.34 9.52 0 0 Z " fill="#1C6D12" transform="translate(209,51)"/>
<path d="M0 0 C1.26582219 3.86723631 1.1118765 7.73151262 1.0625 11.75 C1.05798828 12.44738281 1.05347656 13.14476562 1.04882812 13.86328125 C1.0371002 15.57555803 1.01916653 17.28779033 1 19 C1.66 18.01 2.32 17.02 3 16 C2.67 18.97 2.34 21.94 2 25 C0 24 0 24 -1 21 C-1.09185751 19.54258528 -1.13066657 18.0813988 -1.1328125 16.62109375 C-1.13410156 15.78255859 -1.13539063 14.94402344 -1.13671875 14.08007812 C-1.13285156 13.20802734 -1.12898437 12.33597656 -1.125 11.4375 C-1.12886719 10.56158203 -1.13273438 9.68566406 -1.13671875 8.78320312 C-1.13542969 7.94595703 -1.13414062 7.10871094 -1.1328125 6.24609375 C-1.13168457 5.47966553 -1.13055664 4.7132373 -1.12939453 3.92358398 C-1 2 -1 2 0 0 Z " fill="#0E3216" transform="translate(154,169)"/>
<path d="M0 0 C0.33 0 0.66 0 1 0 C1.05416741 2.72943537 1.09375225 5.45778564 1.125 8.1875 C1.15013672 9.34088867 1.15013672 9.34088867 1.17578125 10.51757812 C1.21266851 14.8149434 0.9958504 18.07901831 -1 22 C-2.85776765 18.86501708 -3.20140476 16.62528568 -3 13 C-2.01 13.495 -2.01 13.495 -1 14 C-0.67 9.38 -0.34 4.76 0 0 Z " fill="#0C2B14" transform="translate(126,172)"/>
<path d="M0 0 C3.81936528 1.55603771 6.26044438 3.95604931 9 7 C9 7.66 9 8.32 9 9 C10.65 9.33 12.3 9.66 14 10 C13.67 10.99 13.34 11.98 13 13 C9.14073288 11.45098223 6.97240841 9.02912393 4.25 5.9375 C3.45078125 5.03902344 2.6515625 4.14054688 1.828125 3.21484375 C0 1 0 1 0 0 Z " fill="#2EE025" transform="translate(110,196)"/>
<path d="M0 0 C0.66 0.33 1.32 0.66 2 1 C0.68 2.65 -0.64 4.3 -2 6 C-0.35 6 1.3 6 3 6 C0.14693203 8.32472205 -2.54074837 9.7508258 -6 11 C-4.74194623 6.49197399 -3.09592835 3.5087188 0 0 Z " fill="#103518" transform="translate(114,102)"/>
<path d="M0 0 C0 3 0 3 -1.75 5.04296875 C-2.4925 5.75066406 -3.235 6.45835937 -4 7.1875 C-4.7425 7.90292969 -5.485 8.61835938 -6.25 9.35546875 C-6.8275 9.89816406 -7.405 10.44085938 -8 11 C-8.99 10.67 -9.98 10.34 -11 10 C-9.73232923 8.70522938 -8.46073776 7.41429661 -7.1875 6.125 C-6.47980469 5.40570313 -5.77210938 4.68640625 -5.04296875 3.9453125 C-3 2 -3 2 0 0 Z " fill="#14391E" transform="translate(174,193)"/>
<path d="M0 0 C0.99 0 1.98 0 3 0 C4.49682984 4.82311836 2.55646867 8.330594 1 13 C0.67 13 0.34 13 0 13 C0 8.71 0 4.42 0 0 Z " fill="#1A621A" transform="translate(77,47)"/>
<path d="M0 0 C-3 2 -3 2 -5.5 2.875 C-8.32772011 4.14747405 -9.36262146 5.41466547 -11 8 C-12.32 7.67 -13.64 7.34 -15 7 C-14.67 6.34 -14.34 5.68 -14 5 C-13.34 5 -12.68 5 -12 5 C-11.360625 4.360625 -10.72125 3.72125 -10.0625 3.0625 C-6.90640719 -0.09359281 -4.27074606 -0.11542557 0 0 Z " fill="#14341C" transform="translate(135,203)"/>
<path d="M0 0 C0.33 0 0.66 0 1 0 C0.42978066 5.3503559 -0.20734361 10.67787852 -1 16 C-1.66 16 -2.32 16 -3 16 C-2.88487847 14.27014758 -2.75744323 12.54111249 -2.625 10.8125 C-2.55539063 9.84957031 -2.48578125 8.88664063 -2.4140625 7.89453125 C-1.99784147 4.98491062 -1.20125904 2.67109226 0 0 Z " fill="#2FE025" transform="translate(159,179)"/>
<path d="M0 0 C0.33 0.99 0.66 1.98 1 3 C-0.98 3.66 -2.96 4.32 -5 5 C-5 5.66 -5 6.32 -5 7 C-4.34 7.33 -3.68 7.66 -3 8 C-5.97 7.67 -8.94 7.34 -12 7 C-9.32014582 4.32014582 -6.57568087 3.83508045 -2.99609375 2.78125 C-0.81272599 2.18371009 -0.81272599 2.18371009 0 0 Z " fill="#0F3B16" transform="translate(195,96)"/>
<path d="M0 0 C2.97 0 5.94 0 9 0 C8.67 1.65 8.34 3.3 8 5 C4.35446828 3.7191375 2.83328987 2.83328987 0 0 Z " fill="#36DB2B" transform="translate(96,186)"/>
<path d="M0 0 C1.65 0 3.3 0 5 0 C3.49776416 4.20626034 0.71449966 5.73900021 -3 8 C-2.37240135 5.07120629 -1.41377341 2.63904371 0 0 Z " fill="#28E51F" transform="translate(175,187)"/>
<path d="M0 0 C0 2.66666667 0 5.33333333 0 8 C-0.99 8.495 -0.99 8.495 -2 9 C-2 8.34 -2 7.68 -2 7 C-3.32 7.33 -4.64 7.66 -6 8 C-2.25 2.25 -2.25 2.25 0 0 Z " fill="#28E01B" transform="translate(184,70)"/>
<path d="M0 0 C3.39417765 3.12621626 5.6062718 5.56541027 7 10 C6.34 10.66 5.68 11.32 5 12 C4.16180842 10.37750059 3.3295884 8.75191503 2.5 7.125 C2.0359375 6.22007813 1.571875 5.31515625 1.09375 4.3828125 C0 2 0 2 0 0 Z " fill="#36D72F" transform="translate(79,50)"/>
<path d="M0 0 C0.99 0.33 1.98 0.66 3 1 C0.79080336 4.75563429 -1.56384272 8.38776679 -4 12 C-5 9 -5 9 -4.00390625 6.73828125 C-3.52824219 5.93777344 -3.05257812 5.13726562 -2.5625 4.3125 C-2.08941406 3.50425781 -1.61632812 2.69601563 -1.12890625 1.86328125 C-0.75636719 1.24839844 -0.38382812 0.63351563 0 0 Z " fill="#21AF17" transform="translate(76,115)"/>
<path d="M0 0 C1.485 0.99 1.485 0.99 3 2 C3 2.66 3 3.32 3 4 C3.66 4 4.32 4 5 4 C5.33 2.68 5.66 1.36 6 0 C5.67 2.97 5.34 5.94 5 9 C0.57142857 3.85714286 0.57142857 3.85714286 0 0 Z " fill="#299A20" transform="translate(208,106)"/>
<path d="M0 0 C0 0.33 0 0.66 0 1 C-5.94 0.67 -11.88 0.34 -18 0 C-18 -0.33 -18 -0.66 -18 -1 C-15.93906592 -1.223293 -13.8761161 -1.42802887 -11.8125 -1.625 C-10.66394531 -1.74101563 -9.51539063 -1.85703125 -8.33203125 -1.9765625 C-4.96669584 -2.00023426 -2.98778294 -1.47419799 0 0 Z " fill="#12261F" transform="translate(151,104)"/>
<path d="M0 0 C0.99 0.33 1.98 0.66 3 1 C0.36 3.64 -2.28 6.28 -5 9 C-5 4.61031544 -2.87194899 3.23094261 0 0 Z " fill="#92969F" transform="translate(155,220)"/>
<path d="M0 0 C0.33 0.66 0.66 1.32 1 2 C1.66 2 2.32 2 3 2 C3 2.66 3 3.32 3 4 C-0.3 4.66 -3.6 5.32 -7 6 C-6.21625 5.38125 -5.4325 4.7625 -4.625 4.125 C-2.03162353 2.10141339 -2.03162353 2.10141339 0 0 Z " fill="#A9A9AB" transform="translate(223,167)"/>
<path d="M0 0 C0.99 0 1.98 0 3 0 C2.6875 2.375 2.6875 2.375 2 5 C1.01 5.66 0.02 6.32 -1 7 C-1.625 5.1875 -1.625 5.1875 -2 3 C-1.34 2.01 -0.68 1.02 0 0 Z " fill="#1EEF0F" transform="translate(185,70)"/>
<path d="M0 0 C0.33 0 0.66 0 1 0 C1.3125 2.75 1.3125 2.75 1 6 C-1.5 8.375 -1.5 8.375 -4 10 C-2.8905928 6.51329166 -1.73662334 3.22515763 0 0 Z " fill="#0D8007" transform="translate(201,50)"/>
<path d="M0 0 C1.98 1.65 3.96 3.3 6 5 C4.68 5.33 3.36 5.66 2 6 C1.01 4.35 0.02 2.7 -1 1 C-0.67 0.67 -0.34 0.34 0 0 Z " fill="#D5D6DB" transform="translate(111,207)"/>
<path d="M0 0 C1.98 0.495 1.98 0.495 4 1 C2.63016497 4.16115776 2.0109362 4.9927092 -1 7 C-1 6.01 -1 5.02 -1 4 C-0.34 4 0.32 4 1 4 C0.67 2.68 0.34 1.36 0 0 Z " fill="#26D41A" transform="translate(161,151)"/>
</svg>
